<svg xmlns="http://www.w3.org/2000/svg" viewBox="0 0 25 25">
    <g id="briefcase_2">
        <path fill="#ffffff" class="cls-1"
              d="M23.5,13.53h0a.5.5,0,0,0-.5.5l0,7.26a.7.7,0,0,1-.21.52.61.61,0,0,1-.45.2h0L2.64,22A.7.7,0,0,1,2,21.23l0-7.1a.5.5,0,0,0-.5-.5h0a.5.5,0,0,0-.5.5l0,7.09A1.71,1.71,0,0,0,2.64,23L22.31,23h0a1.62,1.62,0,0,0,1.18-.51A1.73,1.73,0,0,0,24,21.29L24,14A.5.5,0,0,0,23.5,13.53Z"/>
        <path fill="#ffffff" class="cls-1"
              d="M22.37,6,2.69,6h0A1.66,1.66,0,0,0,1,7.61V12A1,1,0,0,0,2,13l2.54,0h0a.5.5,0,0,0,0-1H2V7.61A.66.66,0,0,1,2.68,7h0L22.36,7a.67.67,0,0,1,.66.67l0,4.34L20.5,12h0a.5.5,0,0,0,0,1L23,13h0a1,1,0,0,0,.67-.28.92.92,0,0,0,.29-.68V7.68A1.67,1.67,0,0,0,22.37,6Z"/>
        <path fill="#ffffff" class="cls-1"
              d="M8.5,5.23a.5.5,0,0,0,.5-.5A1.74,1.74,0,0,1,10.74,3h3.52A1.74,1.74,0,0,1,16,4.73a.5.5,0,0,0,1,0A2.74,2.74,0,0,0,14.26,2H10.74A2.74,2.74,0,0,0,8,4.73.5.5,0,0,0,8.5,5.23Z"/>
        <path fill="#ffffff" class="cls-1"
              d="M18,15a1,1,0,0,0,1-1V12a1,1,0,0,0-1-1H17a1,1,0,0,0-1,1V14a1,1,0,0,0,1,1ZM18,12V14l-1,0,0-2Z"/>
        <path fill="#ffffff" class="cls-1"
              d="M8,15a1,1,0,0,0,1-1V12a1,1,0,0,0-1-1H7a1,1,0,0,0-1,1V14a1,1,0,0,0,1,1ZM8,12V14L7,14l0-2Z"/>
        <path fill="#ffffff" class="cls-1" d="M14.5,13a.5.5,0,0,0,0-1h-4a.5.5,0,0,0,0,1Z"/>
    </g>
</svg>